<?xml version="1.0" encoding="UTF-8"?>
<svg id="Layer_2" data-name="Layer 2" xmlns="http://www.w3.org/2000/svg" viewBox="0 0 548.98 422.29">
  <defs>
    <style>
      .cls-1 {
        fill: #67a1d2;
      }

      .cls-2 {
        fill: #17120b;
      }

      .cls-3 {
        fill: #acdae1;
      }

      .cls-4 {
        fill: #374ea0;
      }

      .cls-5 {
        fill: #292666;
      }

      .cls-6 {
        fill: #edede8;
      }
    </style>
  </defs>
  <g id="_ëÎÓÈ_3" data-name="ëÎÓÈ 3">
    <g>
      <rect class="cls-4" x="211.15" width="42.23" height="42.23"/>
      <rect class="cls-4" x="253.37" width="42.23" height="42.23"/>
      <rect class="cls-4" x="295.6" width="42.23" height="42.23"/>
      <rect class="cls-4" x="253.37" y="42.23" width="42.23" height="42.23"/>
      <rect class="cls-4" x="295.6" y="42.23" width="42.23" height="42.23"/>
      <rect class="cls-4" x="337.83" y="42.23" width="42.23" height="42.23"/>
      <rect class="cls-4" x="211.15" y="84.46" width="42.23" height="42.23"/>
      <rect class="cls-1" x="253.37" y="84.46" width="42.23" height="42.23"/>
      <rect class="cls-3" x="295.6" y="84.46" width="42.23" height="42.23"/>
      <rect class="cls-1" x="337.83" y="84.46" width="42.23" height="42.23"/>
      <rect class="cls-4" x="380.06" y="84.46" width="42.23" height="42.23"/>
      <rect class="cls-4" y="126.69" width="42.23" height="42.23"/>
      <rect class="cls-4" x="42.23" y="126.69" width="42.23" height="42.23"/>
      <rect class="cls-4" x="168.92" y="126.69" width="42.23" height="42.23"/>
      <rect class="cls-3" x="211.15" y="126.69" width="42.23" height="42.23"/>
      <rect class="cls-1" x="253.37" y="126.69" width="42.23" height="42.23"/>
      <rect class="cls-3" x="295.6" y="126.69" width="42.23" height="42.23"/>
      <rect class="cls-1" x="337.83" y="126.69" width="42.23" height="42.23"/>
      <rect class="cls-3" x="380.06" y="126.69" width="42.23" height="42.23"/>
      <rect class="cls-4" x="422.29" y="126.69" width="42.23" height="42.23"/>
      <rect class="cls-4" y="168.92" width="42.23" height="42.23"/>
      <rect class="cls-1" x="42.23" y="168.92" width="42.23" height="42.23"/>
      <rect class="cls-4" x="84.46" y="168.92" width="42.23" height="42.23"/>
      <rect class="cls-4" x="126.69" y="168.92" width="42.23" height="42.23"/>
      <rect class="cls-1" x="168.92" y="168.92" width="42.23" height="42.23"/>
      <rect class="cls-3" x="211.15" y="168.92" width="42.23" height="42.23"/>
      <rect class="cls-1" x="253.37" y="168.92" width="42.23" height="42.23"/>
      <rect class="cls-3" x="295.6" y="168.92" width="42.23" height="42.23"/>
      <rect class="cls-2" x="337.83" y="168.92" width="42.23" height="42.23"/>
      <rect class="cls-6" x="380.06" y="168.92" width="42.23" height="42.23"/>
      <rect class="cls-1" x="422.29" y="168.92" width="42.23" height="42.23"/>
      <rect class="cls-4" x="464.52" y="168.92" width="42.23" height="42.23"/>
      <rect class="cls-5" x="42.23" y="211.15" width="42.23" height="42.23"/>
      <rect class="cls-4" x="84.46" y="211.15" width="42.23" height="42.23"/>
      <rect class="cls-1" x="126.69" y="211.15" width="42.23" height="42.23"/>
      <rect class="cls-1" x="168.92" y="211.15" width="42.23" height="42.23"/>
      <rect class="cls-3" x="211.15" y="211.15" width="42.23" height="42.23"/>
      <rect class="cls-1" x="253.37" y="211.15" width="42.23" height="42.23"/>
      <rect class="cls-3" x="295.6" y="211.15" width="42.23" height="42.23"/>
      <rect class="cls-2" x="337.83" y="211.15" width="42.23" height="42.23"/>
      <rect class="cls-2" x="380.06" y="211.15" width="42.23" height="42.23"/>
      <rect class="cls-1" x="422.29" y="211.15" width="42.23" height="42.23"/>
      <rect class="cls-4" x="464.52" y="211.15" width="42.23" height="42.23"/>
      <rect class="cls-4" x="506.75" y="211.15" width="42.23" height="42.23"/>
      <rect class="cls-5" y="253.37" width="42.23" height="42.23"/>
      <rect class="cls-4" x="42.23" y="253.37" width="42.23" height="42.23"/>
      <rect class="cls-5" x="84.46" y="253.37" width="42.23" height="42.23"/>
      <rect class="cls-5" x="126.69" y="253.37" width="42.23" height="42.23"/>
      <rect class="cls-4" x="168.92" y="253.37" width="42.23" height="42.23"/>
      <rect class="cls-3" x="211.15" y="253.37" width="42.23" height="42.23"/>
      <rect class="cls-1" x="253.37" y="253.37" width="42.23" height="42.23"/>
      <rect class="cls-3" x="295.6" y="253.37" width="42.23" height="42.23"/>
      <rect class="cls-1" x="337.83" y="253.37" width="42.23" height="42.23"/>
      <rect class="cls-3" x="380.06" y="253.37" width="42.23" height="42.23"/>
      <rect class="cls-4" x="422.29" y="253.37" width="42.23" height="42.23"/>
      <rect class="cls-5" x="464.52" y="253.37" width="42.23" height="42.23"/>
      <rect class="cls-5" x="506.75" y="253.37" width="42.23" height="42.23"/>
      <rect class="cls-5" y="295.6" width="42.23" height="42.23"/>
      <rect class="cls-5" x="42.23" y="295.6" width="42.23" height="42.23"/>
      <rect class="cls-5" x="168.92" y="295.6" width="42.23" height="42.23"/>
      <rect class="cls-5" x="211.15" y="295.6" width="42.23" height="42.23"/>
      <rect class="cls-4" x="253.37" y="295.6" width="42.23" height="42.23"/>
      <rect class="cls-1" x="295.6" y="295.6" width="42.23" height="42.23"/>
      <rect class="cls-4" x="337.83" y="295.6" width="42.23" height="42.23"/>
      <rect class="cls-1" x="380.06" y="295.6" width="42.23" height="42.23"/>
      <rect class="cls-5" x="422.29" y="295.6" width="42.23" height="42.23"/>
      <rect class="cls-5" x="253.37" y="337.83" width="42.23" height="42.23"/>
      <rect class="cls-1" x="295.6" y="337.83" width="42.23" height="42.23"/>
      <rect class="cls-5" x="337.83" y="337.83" width="42.23" height="42.23"/>
      <rect class="cls-5" x="380.06" y="337.83" width="42.23" height="42.23"/>
      <rect class="cls-5" x="211.15" y="380.06" width="42.23" height="42.23"/>
      <rect class="cls-5" x="253.37" y="380.06" width="42.23" height="42.23"/>
      <rect class="cls-5" x="295.6" y="380.06" width="42.23" height="42.23"/>
    </g>
  </g>
</svg>